<svg xmlns="http://www.w3.org/2000/svg" width="236.23" height="55.024" viewBox="0 0 236.23 55.024">
  <g id="Group_190" data-name="Group 190" transform="translate(-213.151 -373.611)">
    <path id="Path_6678" data-name="Path 6678" d="M660.6,397.783a12,12,0,0,1,2.229,1.19,5.663,5.663,0,0,1,2.253,5.26c-.171,3.306-2.41,5.168-5.619,5.9a14.387,14.387,0,0,1-3.235.339c-3.765,0-7.53-.008-11.294.007-.4,0-.518-.1-.517-.512q.019-11.617,0-23.234c0-.4.086-.524.507-.522,3.834.022,7.668-.029,11.5.043a7.8,7.8,0,0,1,5.848,2.317,5.992,5.992,0,0,1-1.672,9.208Zm-6.949,2.7c-1.329,0-2.433.013-3.537-.008-.345-.006-.436.107-.432.439.016,1.464.021,2.929,0,4.393-.007.394.11.488.493.484,2.018-.019,4.036,0,6.055-.015a5.688,5.688,0,0,0,1.826-.3,2.463,2.463,0,0,0-.054-4.7,5.609,5.609,0,0,0-.7-.17A25.782,25.782,0,0,0,653.654,400.486ZM652.769,396h1.968a6.417,6.417,0,0,0,1.888-.255,2.341,2.341,0,0,0,1.674-3.065A2.532,2.532,0,0,0,655.861,391c-1.944-.2-3.9-.042-5.846-.093-.3-.008-.327.145-.326.382.006,1.449.01,2.9,0,4.346,0,.3.1.38.389.375C650.973,395.994,651.871,396,652.769,396Z" transform="translate(-360.957 -10.548)" fill="#5a2b6b"/>
    <path id="Path_6679" data-name="Path 6679" d="M888.67,395.146v.7c0,4.692-.006,9.384.01,14.076,0,.421-.092.557-.534.547-1.45-.03-2.9-.022-4.352,0-.341,0-.431-.1-.431-.433q.013-11.7,0-23.391c0-.326.072-.445.423-.44,1.4.02,2.8.014,4.2,0a.627.627,0,0,1,.563.277q4.458,5.867,8.928,11.727c.7.913,1.395,1.824,2.176,2.846v-.675c0-4.537.007-9.073-.011-13.61,0-.451.1-.582.565-.572,1.45.033,2.9.022,4.352,0,.337,0,.443.089.443.433q-.013,11.7,0,23.391c0,.332-.085.447-.435.44-1.191-.021-2.384-.027-3.575,0a1.015,1.015,0,0,1-.945-.452c-1.929-2.56-3.879-5.105-5.823-7.654q-2.556-3.351-5.113-6.7C889,395.527,888.888,395.4,888.67,395.146Z" transform="translate(-560.945 -10.535)" fill="#5a2b6b"/>
    <path id="Path_6680" data-name="Path 6680" d="M1226.167,395.117v.69c0,4.708-.006,9.417.01,14.125,0,.422-.09.554-.532.545-1.432-.03-2.866-.022-4.3,0-.344,0-.473-.064-.472-.445q.017-11.693,0-23.386c0-.337.091-.437.431-.433,1.381.018,2.763.015,4.144,0a.673.673,0,0,1,.609.289q4.925,6.484,9.861,12.96c.382.5.769,1,1.174,1.524a1.077,1.077,0,0,0,.066-.591q.005-6.83,0-13.659c0-.386.069-.537.5-.528,1.433.03,2.866.022,4.3,0,.36,0,.507.052.506.468q-.021,11.667,0,23.334c0,.361-.094.468-.459.462-1.243-.022-2.486-.018-3.729,0a.708.708,0,0,1-.635-.338q-5.6-7.364-11.222-14.716C1226.361,395.352,1226.306,395.288,1226.167,395.117Z" transform="translate(-843.43 -10.541)" fill="#5a2b6b"/>
    <path id="Path_6681" data-name="Path 6681" d="M312.7,576.423c-.129.136-.232.25-.34.358q-5.4,5.4-10.8,10.8c-1.819,1.817-3.646,3.627-5.453,5.455-.268.271-.41.287-.69.007q-8.155-8.171-16.335-16.317c-.241-.241-.24-.367,0-.6q2.835-2.8,5.638-5.636c.285-.289.42-.245.68.016,3.312,3.326,6.641,6.634,9.949,9.964.322.323.476.328.8,0,3.309-3.328,6.641-6.634,9.952-9.959.291-.293.442-.274.721.009,1.843,1.866,3.705,3.713,5.56,5.568C312.492,576.186,312.591,576.3,312.7,576.423Z" transform="translate(-55.032 -164.607)" fill="#5a2b6b"/>
    <path id="Path_6682" data-name="Path 6682" d="M295.628,386.038c-.126.117-.24.217-.347.324l-9.379,9.367c-.244.244-.5.478-.732.733-.185.2-.321.18-.507-.007q-2.887-2.9-5.787-5.782c-.168-.167-.192-.277,0-.454.4-.376.78-.78,1.17-1.17q7.619-7.611,15.234-15.225c.252-.252.383-.3.672-.013q8.135,8.158,16.3,16.286c.253.252.322.381.023.673q-2.828,2.774-5.607,5.6c-.273.277-.416.275-.691,0q-4.986-5.009-10-10C295.871,386.26,295.756,386.158,295.628,386.038Z" transform="translate(-54.897)" fill="#5a2b6b"/>
    <path id="Path_6683" data-name="Path 6683" d="M1548.439,398.319c0-3.846.008-7.692-.01-11.538,0-.449.1-.577.567-.575q8.625.026,17.25,0c.388,0,.537.073.527.5-.031,1.258-.027,2.518,0,3.776.008.4-.092.518-.508.516-3.971-.017-7.943,0-11.914-.021-.449,0-.581.1-.568.56.036,1.292.027,2.587,0,3.88-.007.368.1.456.463.454,3.47-.013,6.941,0,10.412-.021.477,0,.568.141.558.579-.029,1.241-.027,2.483,0,3.725.009.4-.112.484-.493.483-3.436-.015-6.872.006-10.308-.024-.549,0-.648.161-.634.66.035,1.31.031,2.622,0,3.932-.01.426.134.5.523.5,4.04-.013,8.081,0,12.121-.018.433,0,.548.114.538.541-.029,1.276-.02,2.552,0,3.828,0,.308-.068.414-.4.413q-8.858-.015-17.716,0c-.437,0-.41-.222-.409-.515Q1548.442,404.139,1548.439,398.319Z" transform="translate(-1117.583 -10.541)" fill="#5a2b6b"/>
    <path id="Path_6684" data-name="Path 6684" d="M1065.487,409.515c-1.85,0-3.609,0-5.368,0-.3,0-.317-.225-.39-.4-.625-1.51-1.255-3.017-1.85-4.538a.643.643,0,0,0-.717-.481q-4.635.023-9.271,0a.561.561,0,0,0-.637.416c-.6,1.538-1.249,3.056-1.855,4.592a.578.578,0,0,1-.655.414c-1.467-.018-2.935-.007-4.4-.008-.6,0-.6,0-.376-.535q1.778-4.175,3.561-8.348,3.184-7.474,6.356-14.954a.813.813,0,0,1,.9-.607c1.276.041,2.555.025,3.832.006a.589.589,0,0,1,.655.418q4.8,11.3,9.618,22.592C1065.084,408.541,1065.271,409,1065.487,409.515Zm-16.135-10.157c2.016,0,3.947-.015,5.877.01.493.006.48-.14.323-.517-.781-1.869-1.541-3.748-2.311-5.622-.212-.516-.433-1.027-.7-1.651Z" transform="translate(-691.902 -9.592)" fill="#5a2b6b"/>
    <path id="Path_6685" data-name="Path 6685" d="M1397.466,383.725a12.836,12.836,0,0,1,7.749,2.291c.517.375.989.8,1.473,1.218.227.195.176.319.016.5-1,1.142-2,2.281-2.978,3.44-.239.282-.359.108-.53-.038a10.346,10.346,0,0,0-3.429-2.064,7.04,7.04,0,0,0-9.4,5.96,7.887,7.887,0,0,0,2.2,6.923,7.323,7.323,0,0,0,8.9.774,11.619,11.619,0,0,0,1.852-1.4c.265-.252.423-.271.694.014.915.963,1.853,1.9,2.805,2.83.251.245.214.376-.005.609a12.485,12.485,0,0,1-9.67,4.027,12.027,12.027,0,0,1-10.018-4.9,12.829,12.829,0,0,1,1.919-17.279A12.521,12.521,0,0,1,1397.466,383.725Z" transform="translate(-980.496 -8.465)" fill="#5a2b6b"/>
    <path id="Path_6686" data-name="Path 6686" d="M743.14,588.269l3-4.653c.569-.883,1.142-1.763,1.706-2.65a.559.559,0,0,1,.534-.317c.777.019,1.554.021,2.331,0,.315-.008.367.122.366.4q-.009,7.708,0,15.417c0,.326-.111.412-.419.4-.638-.019-1.279-.033-1.916,0-.427.025-.509-.136-.507-.527.014-3.449.008-6.9.008-10.347v-.5l-.092-.046c-.211.3-.427.592-.631.9q-2.061,3.069-4.118,6.14c-.314.469-.319.468-.634,0q-2.2-3.289-4.4-6.58c-.094-.14-.193-.277-.374-.536v.607c0,3.449-.007,6.9.009,10.347,0,.415-.083.579-.531.551-.636-.04-1.277-.023-1.916,0-.3.009-.381-.1-.38-.388q.011-7.734,0-15.469c0-.265.075-.363.351-.358.794.015,1.589.02,2.382,0,.281-.008.4.148.519.341q1.958,3.04,3.92,6.077C742.6,587.442,742.845,587.816,743.14,588.269Z" transform="translate(-436.925 -173.283)" fill="#5a2b6b"/>
    <path id="Path_6687" data-name="Path 6687" d="M806.995,398.311c0-3.861.006-7.722-.009-11.583,0-.4.093-.525.509-.518,1.466.026,2.934.02,4.4,0,.348,0,.475.078.475.453q-.015,11.687,0,23.374c0,.336-.092.442-.437.438-1.5-.018-3-.022-4.5,0-.39.006-.44-.147-.44-.481Q807,404.154,806.995,398.311Z" transform="translate(-497.02 -10.544)" fill="#5a2b6b"/>
    <path id="Path_6688" data-name="Path 6688" d="M1586.228,591.792V587.6c0-2.173.006-4.346-.007-6.519,0-.321.059-.462.42-.446.655.029,1.313.028,1.968,0,.354-.015.445.114.423.442-.026.378-.006.758-.006,1.138,0,4.708-.005,9.416.009,14.124,0,.4-.118.469-.509.527a2.9,2.9,0,0,1-3.027-1.439c-2.376-3.235-4.894-6.366-7.358-9.538-.094-.121-.2-.236-.318-.383a.9.9,0,0,0-.075.561c0,3.415-.01,6.829.007,10.244,0,.426-.108.571-.543.544-.619-.037-1.243-.022-1.864,0-.3.009-.423-.056-.422-.394q.016-7.708,0-15.417c0-.321.09-.417.409-.4.621.024,1.243.019,1.864,0a.673.673,0,0,1,.609.3q3.651,4.724,7.313,9.439C1585.457,590.812,1585.8,591.241,1586.228,591.792Z" transform="translate(-1139.76 -173.275)" fill="#5a2b6b"/>
    <path id="Path_6689" data-name="Path 6689" d="M979.275,590.719c1.369,1.922,2.7,3.787,4.023,5.655.083.117.28.224.193.384s-.284.082-.433.083c-.794,0-1.589-.01-2.383.008a.722.722,0,0,1-.682-.352c-1.163-1.667-2.349-3.319-3.512-4.986a.661.661,0,0,0-.628-.332c-.9.019-1.8.023-2.693,0-.349-.009-.429.108-.426.438.016,1.586,0,3.173.014,4.759,0,.35-.081.492-.456.476-.638-.028-1.279-.03-1.916,0-.4.019-.533-.092-.526-.514.025-1.655.01-3.311.01-4.966,0-3.4.007-6.794-.009-10.192,0-.421.1-.556.539-.552,2.262.023,4.524-.012,6.785.018a6.657,6.657,0,0,1,4.416,1.465c2.171,1.844,2.416,6.944-1.829,8.438Zm-6.533-4.773c0,.775,0,1.549,0,2.324,0,.2,0,.37.287.366,1.533-.02,3.072.05,4.6-.06a2.616,2.616,0,0,0,2.5-3.216,2.548,2.548,0,0,0-2.574-2.038c-1.48-.056-2.963-.021-4.444-.043-.309,0-.374.118-.368.395C972.752,584.431,972.742,585.189,972.742,585.946Z" transform="translate(-633.333 -173.266)" fill="#5a2b6b"/>
    <path id="Path_6690" data-name="Path 6690" d="M1310.5,588.715c0-2.536.009-5.071-.01-7.607,0-.394.107-.5.491-.482a17.606,17.606,0,0,0,1.864,0c.419-.023.562.089.556.535-.025,1.9,0,3.795-.021,5.692-.005.411.111.512.515.509q3.341-.03,6.683,0c.428,0,.5-.137.5-.522-.018-1.914,0-3.829-.016-5.744,0-.346.068-.489.449-.471.672.031,1.347.024,2.02,0,.327-.01.411.116.411.421q-.01,7.684,0,15.368c0,.3-.076.438-.406.428-.673-.02-1.348-.027-2.02,0-.375.016-.456-.119-.454-.47.016-1.949-.005-3.9.018-5.847,0-.415-.117-.511-.516-.507-2.21.019-4.421.027-6.631,0-.488-.007-.555.158-.55.583.021,1.914,0,3.829.018,5.744,0,.384-.1.518-.491.5-.655-.029-1.313-.03-1.968,0-.382.018-.45-.131-.448-.475C1310.5,593.82,1310.5,591.268,1310.5,588.715Z" transform="translate(-918.434 -173.262)" fill="#5a2b6b"/>
    <path id="Path_6691" data-name="Path 6691" d="M1425.373,596.323c-1.453,0-1.451,0-2-1.333-.3-.732-.617-1.458-.913-2.191a.519.519,0,0,0-.561-.394q-3.418.027-6.837,0a.51.51,0,0,0-.56.387c-.417,1.037-.885,2.054-1.3,3.09a.612.612,0,0,1-.694.447c-.655-.03-1.312-.022-1.968,0-.364.011-.484-.019-.3-.433q2.946-6.679,5.854-13.375c.317-.725.642-1.447.943-2.178a.452.452,0,0,1,.5-.334c.638.019,1.278.024,1.916,0a.516.516,0,0,1,.566.389q3.264,7.5,6.547,14.987c.411.94.41.94-.615.94Zm-4.147-6.476-2.748-6.344c-.107.218-.163.323-.21.431q-1.061,2.465-2.121,4.931c-.422.982-.423.982.659.982Z" transform="translate(-1001.851 -172.745)" fill="#5a2b6b"/>
    <path id="Path_6692" data-name="Path 6692" d="M865.326,596.272c-1.445,0-1.446,0-2.01-1.328-.316-.744-.642-1.484-.932-2.238a.474.474,0,0,0-.533-.349c-2.279.011-4.558.017-6.837,0a.559.559,0,0,0-.591.432c-.433,1.031-.884,2.055-1.3,3.093a.545.545,0,0,1-.613.4c-.673-.023-1.347-.025-2.02,0-.39.015-.477-.068-.308-.446.709-1.585,1.394-3.182,2.09-4.773,1.537-3.513,3.083-7.022,4.6-10.542a.755.755,0,0,1,.873-.566,10.394,10.394,0,0,0,1.6,0,.554.554,0,0,1,.614.406q2.859,6.576,5.733,13.146c.344.789.676,1.583,1.044,2.361.168.355.046.419-.28.408C866.086,596.263,865.706,596.272,865.326,596.272Zm-6.918-12.847c-.889,2.072-1.73,4.045-2.586,6.013-.143.33-.021.365.271.363,1.552-.009,3.1-.013,4.657,0,.359,0,.409-.077.262-.4-.454-1-.881-2.015-1.319-3.023C859.278,585.423,858.862,584.468,858.408,583.426Z" transform="translate(-533.106 -172.695)" fill="#5a2b6b"/>
    <path id="Path_6693" data-name="Path 6693" d="M645.127,596.019a10.283,10.283,0,0,1-6.39-2.331c-.27-.219-.331-.356-.062-.634a13.253,13.253,0,0,0,1.168-1.38c.22-.3.362-.3.635-.069a7.317,7.317,0,0,0,3.227,1.673,5.255,5.255,0,0,0,3.106-.124,1.822,1.822,0,0,0,.858-2.9,2.633,2.633,0,0,0-.989-.641,19.587,19.587,0,0,0-2.823-.827,13.819,13.819,0,0,1-2.343-.809,3.879,3.879,0,0,1-2.449-3.534,4.355,4.355,0,0,1,2.089-4.167,6.221,6.221,0,0,1,3.349-.913,9.044,9.044,0,0,1,5.621,1.763c.267.2.362.334.116.635-.392.48-.744.994-1.088,1.51-.164.246-.278.259-.524.089a7.16,7.16,0,0,0-3.816-1.436,3.529,3.529,0,0,0-1.952.384,1.74,1.74,0,0,0-.062,3.051,10.989,10.989,0,0,0,3.07,1.041,13.3,13.3,0,0,1,3,1.1c2.77,1.468,2.489,5.12.967,6.738a5.645,5.645,0,0,1-3.519,1.674C645.918,595.963,645.521,595.984,645.127,596.019Z" transform="translate(-356.004 -172.203)" fill="#5a2b6b"/>
    <path id="Path_6694" data-name="Path 6694" d="M1201.768,588.191c0-5.111,2.789-8.451,7.063-9.086a8.544,8.544,0,0,1,7.256,2.075c.279.249.359.42.06.723a18.694,18.694,0,0,0-1.262,1.437c-.213.265-.351.269-.6.041a6.2,6.2,0,0,0-3.065-1.627,5.223,5.223,0,0,0-6.254,4.038,5.785,5.785,0,0,0,3.054,6.853,5.423,5.423,0,0,0,5.526-.689,7.35,7.35,0,0,0,.918-.754c.235-.23.371-.134.548.053.414.439.826.883,1.269,1.291.257.237.237.381,0,.613a8.332,8.332,0,0,1-4.376,2.395,8.6,8.6,0,0,1-6.009-.885A7.81,7.81,0,0,1,1201.768,588.191Z" transform="translate(-827.44 -171.893)" fill="#5a2b6b"/>
    <path id="Path_6695" data-name="Path 6695" d="M219.331,504.219c.094.083.173.145.243.216q2.892,2.887,5.788,5.77c.205.2.164.313-.017.492q-2.9,2.88-5.78,5.777c-.206.207-.312.159-.489-.019q-2.883-2.9-5.783-5.775c-.195-.193-.183-.3,0-.489q2.9-2.876,5.788-5.766C219.155,504.354,219.239,504.3,219.331,504.219Z" transform="translate(0 -109.314)" fill="#5a2b6b"/>
    <path id="Path_6696" data-name="Path 6696" d="M488.041,510.732c-.071.087-.128.171-.2.241q-2.908,2.908-5.814,5.817c-.189.19-.289.144-.452-.018q-2.9-2.912-5.82-5.811c-.182-.18-.166-.281.005-.451q2.917-2.9,5.82-5.807c.175-.176.286-.167.46.007q2.9,2.914,5.815,5.816C487.916,510.587,487.97,510.653,488.041,510.732Z" transform="translate(-219.683 -109.613)" fill="#5a2b6b"/>
    <path id="Path_6697" data-name="Path 6697" d="M350.6,504.185c.088.074.172.134.244.205q2.894,2.887,5.789,5.773c.192.19.184.306,0,.49q-2.918,2.9-5.82,5.816c-.194.2-.287.137-.446-.023q-2.886-2.9-5.785-5.778c-.186-.185-.207-.3-.009-.5q2.9-2.879,5.789-5.774C350.428,504.326,350.508,504.262,350.6,504.185Z" transform="translate(-109.874 -109.286)" fill="#5a2b6b"/>
    <path id="Path_6698" data-name="Path 6698" d="M1072.628,590.046c0,2.1-.01,4.208.009,6.311,0,.4-.119.508-.5.492-.638-.027-1.279-.034-1.916,0-.426.024-.509-.135-.508-.527.013-4.018.008-8.036.008-12.054,0-.952,0-.952-.936-.952-1.243,0-2.487-.021-3.729.012-.434.011-.519-.142-.5-.527a14.277,14.277,0,0,0,0-1.654c-.026-.411.106-.522.518-.52,3.159.017,6.319.009,9.479.009.9,0,1.8.023,2.693-.01.4-.015.5.119.478.5a15.874,15.874,0,0,0,0,1.758c.022.382-.123.45-.469.445-1.364-.019-2.728.009-4.092-.018-.42-.008-.553.085-.548.529C1072.642,585.907,1072.628,587.976,1072.628,590.046Z" transform="translate(-712.596 -173.265)" fill="#5a2b6b"/>
    <path id="Path_6699" data-name="Path 6699" d="M1530.97,588.743c0-2.535.01-5.07-.01-7.6,0-.411.111-.533.518-.511.637.034,1.278.029,1.916,0,.367-.016.469.108.465.467-.017,1.621-.007,3.242-.007,4.863,0,3.449-.008,6.9.009,10.346,0,.437-.129.568-.556.545a14.926,14.926,0,0,0-1.812,0c-.451.03-.536-.141-.533-.555C1530.98,593.778,1530.97,591.26,1530.97,588.743Z" transform="translate(-1102.963 -173.263)" fill="#5a2b6b"/>
  </g>
</svg>
