<svg xmlns="http://www.w3.org/2000/svg" width="212.389" height="85.375" viewBox="0 0 212.389 85.375">
  <g id="Group_192" data-name="Group 192" transform="translate(-457.728 -7635)">
    <g id="Group_191" data-name="Group 191" transform="translate(457.728 7635)">
      <path id="Path_6700" data-name="Path 6700" d="M510.273,430l-13.726,24.4H469.114L482.831,430h27.443" transform="translate(-469.114 -430.002)" opacity="0.58" style="isolation: isolate"/>
      <path id="Path_6701" data-name="Path 6701" d="M518.176,454.4h27.443L531.9,430H504.459Z" transform="translate(-490.742 -430.002)" fill="#a750c6" opacity="0.46"/>
      <path id="Path_6702" data-name="Path 6702" d="M482.831,478.784,496.547,454.4,482.831,430l-13.717,24.4Z" transform="translate(-469.114 -430.002)" fill="#5a2b6b" opacity="0.53"/>
      <path id="Path_6703" data-name="Path 6703" d="M504.8,611.531l13.726-24.4h27.443l-13.726,24.4H504.8" transform="translate(-490.952 -526.155)" opacity="0.57" style="isolation: isolate"/>
      <path id="Path_6704" data-name="Path 6704" d="M496.9,587.135H469.456l13.717,24.4h27.443Z" transform="translate(-469.323 -526.155)" fill="#5a2b6b" opacity="0.52"/>
      <path id="Path_6705" data-name="Path 6705" d="M553.888,524.3l-13.717,24.386,13.717,24.4,13.726-24.4Z" transform="translate(-512.595 -487.703)" fill="#a750c6" opacity="0.45"/>
    </g>
    <g id="Group_193" data-name="Group 193" transform="translate(532.264 7664.48)">
      <path id="Path_6706" data-name="Path 6706" d="M661.923,677.451c-.182,2.654-.183,2.618-2.506,2.667-1.449.03-3.375-.633-4.208.288-.718.794-.251,2.68-.255,4.084-.013,5.329-.075,10.659.039,15.985.032,1.52-.458,1.928-1.823,1.71a2.509,2.509,0,0,0-.816,0c-1.123.2-1.316-.333-1.309-1.345.043-6.361-.021-12.724.056-19.084.016-1.337-.273-1.821-1.669-1.681-1.35.136-2.725-.01-4.086.044-.847.034-1.108-.245-1.123-1.107-.041-2.4-.086-2.4,2.244-2.4,5.944,0,11.888.026,17.831-.026a1.755,1.755,0,0,1,1.926,1.23c1.436,3.265,2.99,6.479,4.629,9.993,1.458-3.144,2.933-5.97,4.078-8.924.73-1.885,1.782-2.658,3.733-2.277.407.079.855-.129,1.363.251-1.3,2.646-2.415,5.425-3.96,7.941a21.877,21.877,0,0,0-3.4,14.534,3.982,3.982,0,0,1,0,.489c0,2.4-.626,2.871-3.049,2.369-.4-.084-.574-.214-.557-.606a4.4,4.4,0,0,1,0-.489c1.1-7.043-1.364-13.176-4.84-19.07C663.437,680.687,662.82,679.245,661.923,677.451Z" transform="translate(-542.176 -676.371)" fill="#5a2b6b"/>
      <path id="Path_6707" data-name="Path 6707" d="M556.071,689.555c0-3.855.036-7.71-.024-11.564-.015-.994.225-1.3,1.253-1.266,2.229.085,4.464.025,6.7.026,5.921,0,9.352,3.217,9.639,9.087a65.557,65.557,0,0,1-.109,8.449,8.67,8.67,0,0,1-8.51,8.026c-2.559.035-5.121-.062-7.676.037-1.166.045-1.3-.418-1.288-1.394C556.1,697.156,556.071,693.355,556.071,689.555Zm3.833.1q0,3.986,0,7.971c0,.542-.1,1.088.772,1.049,1.52-.067,3.055.056,4.563-.1a4.65,4.65,0,0,0,4.414-4.268,39.1,39.1,0,0,0-.017-9.4,5.042,5.042,0,0,0-5.011-4.442c-1.086-.042-2.181.06-3.261-.026-1.1-.088-1.525.227-1.485,1.41C559.964,684.45,559.9,687.055,559.9,689.658Z" transform="translate(-482.902 -676.512)" fill="#5a2b6b"/>
      <path id="Path_6708" data-name="Path 6708" d="M416.182,689.284c0,1.625.066,3.254-.012,4.876a8.764,8.764,0,0,1-17.407.523,50.029,50.029,0,0,1,.005-11.2c.509-4.456,4.413-7.519,9.221-7.351a8.517,8.517,0,0,1,8.19,7.95c.083,1.73.014,3.468.014,5.2Zm-13.819-.112c.156,1.68-.092,3.421.311,5.139a4.969,4.969,0,0,0,4.9,3.947,4.857,4.857,0,0,0,4.659-4.215,38.158,38.158,0,0,0,0-9.724,4.82,4.82,0,0,0-4.614-4.259,4.889,4.889,0,0,0-4.938,3.885A34.242,34.242,0,0,0,402.363,689.172Z" transform="translate(-376.953 -676.112)" fill="#5a2b6b"/>
      <path id="Path_6709" data-name="Path 6709" d="M342.466,702.174a14.748,14.748,0,0,1-8.8-2.654c-.782-.552-1.227-1.069-.266-1.844a2.12,2.12,0,0,0,.411-.5c.771-1.185,1.443-1.539,2.871-.538a9.116,9.116,0,0,0,7.81,1.261,3.3,3.3,0,0,0-.182-6.475c-1.276-.268-2.579-.406-3.864-.635-4.147-.738-6.591-3.472-6.522-7.272.074-4.107,2.552-6.858,6.826-7.345a13.391,13.391,0,0,1,8.588,1.984c.683.411,1,.794.329,1.466a1.689,1.689,0,0,0-.362.539c-.669,1.646-1.541,1.851-3.134.889a7.565,7.565,0,0,0-5.211-.92,3.5,3.5,0,0,0-3.187,3.38c-.049,1.5,1.2,2.868,3.093,3.274,1.168.25,2.369.349,3.544.57,4.221.791,6.468,3.337,6.472,7.295,0,4.2-2.07,6.547-6.526,7.344A18.945,18.945,0,0,1,342.466,702.174Z" transform="translate(-332.852 -676.082)" fill="#5a2b6b"/>
      <path id="Path_6710" data-name="Path 6710" d="M471.425,687.771c0,3.257.035,6.515-.023,9.77-.017.936.268,1.17,1.178,1.154,3.211-.054,6.425.024,9.635-.046,1.054-.023,1.489.245,1.329,1.325a5.869,5.869,0,0,0,0,1.463c.077.731-.232.907-.926.9-4.682-.026-9.364-.038-14.046.006-.938.009-1.042-.384-1.04-1.163q.033-11.644-.008-23.287c0-.969.332-1.153,1.217-1.159,2.686-.019,2.686-.057,2.686,2.565Q471.425,683.537,471.425,687.771Z" transform="translate(-423.389 -676.52)" fill="#5a2b6b"/>
      <path id="Path_6711" data-name="Path 6711" d="M624.592,689.505c0-3.751.043-7.5-.026-11.253-.021-1.143.158-1.627,1.474-1.566,2.38.111,2.385.018,2.385,2.387,0,7.284-.031,14.569.031,21.853.01,1.179-.33,1.559-1.443,1.372a2.638,2.638,0,0,0-.816,0c-1.217.182-1.679-.193-1.641-1.542C624.661,697.009,624.592,693.256,624.592,689.505Z" transform="translate(-528.959 -676.485)" fill="#5a2b6b"/>
      <path id="Path_6712" data-name="Path 6712" d="M528.289,689.443c0-3.8.033-7.595-.022-11.391-.014-1,.171-1.532,1.3-1.35a4.876,4.876,0,0,0,1.3,0c.873-.1,1.224.154,1.218,1.131q-.06,11.635.007,23.271c.008,1.114-.436,1.2-1.334,1.194-2.471-.014-2.471.021-2.471-2.443Z" transform="translate(-464.226 -676.475)" fill="#5a2b6b"/>
    </g>
  </g>
</svg>
