<svg xmlns="http://www.w3.org/2000/svg" width="221.977" height="67.776" viewBox="0 0 221.977 67.776">
  <g id="Group_194" data-name="Group 194" transform="translate(-187.949 -429.962)">
    <path id="Path_6713" data-name="Path 6713" d="M429.509,509.076a12,12,0,0,1,.8-4.731,12.08,12.08,0,0,1,6.586-6.75,12.405,12.405,0,0,1,4.731-.946c6.132,0,9.752,3.566,10.844,7.769l-3.839,1.292a6.686,6.686,0,0,0-6.987-5.24c-3.966,0-7.933,2.875-7.933,8.7s3.876,8.588,7.987,8.588a7.188,7.188,0,0,0,7.151-5.258l3.73,1.219a10.755,10.755,0,0,1-10.935,7.915,11.95,11.95,0,0,1-12.136-12.555Z" transform="translate(-165.36 -45.654)" fill="#5a2b6b"/>
    <path id="Path_6714" data-name="Path 6714" d="M517.606,520.873h-3.948V496.419h3.948v9.589a5.889,5.889,0,0,1,4.694-2.056c4.076,0,6.041,2.911,6.041,6.532v10.408H524.52v-9.735a3.124,3.124,0,0,0-.109-1.419,3.375,3.375,0,0,0-.709-1.237,3.323,3.323,0,0,0-1.183-.8,3.148,3.148,0,0,0-1.419-.219,3.312,3.312,0,0,0-1.383.291,3.4,3.4,0,0,0-1.146.819,3.545,3.545,0,0,0-.728,1.2,3.335,3.335,0,0,0-.164,1.4Z" transform="translate(-222.981 -45.497)" fill="#5a2b6b"/>
    <path id="Path_6715" data-name="Path 6715" d="M577.194,527.68l4.24-.655c.946-.127,1.219-.6,1.219-1.183,0-1.383-.946-2.511-3.13-2.511a3.258,3.258,0,0,0-1.255.145,3.089,3.089,0,0,0-1.092.619,3.184,3.184,0,0,0-.764,1,2.858,2.858,0,0,0-.291,1.219l-3.6-.8c.291-2.838,2.893-5.385,6.95-5.385,5.095,0,7.042,2.875,7.042,6.223v8.169a15.98,15.98,0,0,0,.2,2.638h-3.675a10.132,10.132,0,0,1-.164-2.092,5.769,5.769,0,0,1-5.095,2.584,5.051,5.051,0,0,1-2.074-.255,5.236,5.236,0,0,1-1.8-1.037,5.1,5.1,0,0,1-1.747-3.675C572.19,529.7,574.356,528.08,577.194,527.68Zm5.459,2.638v-.746l-4.312.637a2.241,2.241,0,0,0-1.547.673,2.3,2.3,0,0,0-.655,1.565,2.049,2.049,0,0,0,.2.873,2.267,2.267,0,0,0,.528.71,2.069,2.069,0,0,0,.782.437,2.135,2.135,0,0,0,.892.091,3.8,3.8,0,0,0,3.093-1.146,3.847,3.847,0,0,0,.873-1.456A3.771,3.771,0,0,0,582.652,530.318Z" transform="translate(-263.027 -61.728)" fill="#5a2b6b"/>
    <path id="Path_6716" data-name="Path 6716" d="M633.449,495.323a2.706,2.706,0,0,1,1,.182,2.843,2.843,0,0,1,.855.546,2.606,2.606,0,0,1,.564.837,2.633,2.633,0,0,1,.2.982,2.547,2.547,0,0,1-2.565,2.547,2.639,2.639,0,0,1-1.82-.746,2.562,2.562,0,0,1-.746-1.8,2.5,2.5,0,0,1,.728-1.783A2.616,2.616,0,0,1,633.449,495.323Zm-1.91,24.872V503.674h3.894v16.448Z" transform="translate(-303.271 -44.746)" fill="#5a2b6b"/>
    <path id="Path_6717" data-name="Path 6717" d="M665.23,537.176h-3.948V520.728h3.839v2.183a5.488,5.488,0,0,1,4.894-2.675c4.039,0,5.968,2.911,5.968,6.532v10.408h-3.948v-9.734c0-2.02-.928-3.657-3.384-3.657a3.433,3.433,0,0,0-1.419.309,3.235,3.235,0,0,0-1.164.855,3.383,3.383,0,0,0-.71,1.274,3.521,3.521,0,0,0-.127,1.437Z" transform="translate(-324.044 -61.799)" fill="#5a2b6b"/>
    <path id="Path_6718" data-name="Path 6718" d="M723.182,520.873V496.419h3.948v24.454Z" transform="translate(-366.421 -45.497)" fill="#5a2b6b"/>
    <path id="Path_6719" data-name="Path 6719" d="M752.455,495.323a2.573,2.573,0,0,1,1.819.746,2.516,2.516,0,0,1,.764,1.82,2.609,2.609,0,0,1-.436,1.419,2.582,2.582,0,0,1-1.147.928,2.729,2.729,0,0,1-1.474.145,2.621,2.621,0,0,1-1.31-.691,2.533,2.533,0,0,1-.564-2.784,2.588,2.588,0,0,1,2.347-1.583ZM750.526,520.2V503.674h3.912v16.448Z" transform="translate(-384.722 -44.746)" fill="#5a2b6b"/>
    <path id="Path_6720" data-name="Path 6720" d="M784.3,537.176h-3.948V520.728h3.839v2.183a5.487,5.487,0,0,1,4.894-2.675c4.039,0,5.986,2.911,5.986,6.532v10.408h-3.948v-9.734a3.119,3.119,0,0,0-.109-1.419,3.372,3.372,0,0,0-.71-1.237,3.324,3.324,0,0,0-1.182-.8,3.143,3.143,0,0,0-1.419-.218,3.436,3.436,0,0,0-1.419.309,3.225,3.225,0,0,0-1.164.873,3.385,3.385,0,0,0-.71,1.274,3.521,3.521,0,0,0-.127,1.437v9.516Z" transform="translate(-405.559 -61.799)" fill="#5a2b6b"/>
    <path id="Path_6721" data-name="Path 6721" d="M850.872,511.375l6.951,9.5H853l-4.858-6.769-2.038,2.129v4.658h-3.912V496.419H846.1v14.665l6.35-6.659h5.24Z" transform="translate(-447.896 -45.497)" fill="#5a2b6b"/>
    <path id="Path_6722" data-name="Path 6722" d="M217.48,444.318l17.03,9.734v19.541l-16.994,9.789-17.03-9.716V454.125Zm0-14.356-6.259,3.6-17.031,9.807-6.241,3.6v33.9l6.259,3.566,17.03,9.734,6.259,3.566,6.259-3.6,16.994-9.807,6.259-3.585V446.829l-6.259-3.566-17.03-9.734-6.259-3.566Z" transform="translate(0 0)" fill="#5a2b6b"/>
  </g>
</svg>
