<svg xmlns="http://www.w3.org/2000/svg" width="193.27" height="30.807" viewBox="0 0 193.27 30.807">
  <g id="Group_199" data-name="Group 199" transform="translate(-321.843 -446.083)">
    <path id="Path_6729" data-name="Path 6729" d="M738.949,451.045a15.232,15.232,0,0,1-4.384,1.2,7.645,7.645,0,0,0,3.357-4.223,15.286,15.286,0,0,1-4.848,1.853,7.639,7.639,0,0,0-13.01,6.961,21.672,21.672,0,0,1-15.734-7.975,7.645,7.645,0,0,0,2.361,10.193,7.608,7.608,0,0,1-3.456-.955,7.639,7.639,0,0,0,6.122,7.581,7.648,7.648,0,0,1-3.448.13,7.639,7.639,0,0,0,7.132,5.3,15.348,15.348,0,0,1-11.3,3.163,21.613,21.613,0,0,0,11.7,3.429c14.174,0,22.182-11.971,21.7-22.708A15.542,15.542,0,0,0,738.949,451.045Z" transform="translate(-223.836 -0.814)" fill="#5a2b6b"/>
    <g id="layer1" transform="translate(321.843 446.083)">
      <g id="g4147">
        <path id="path4223" d="M330.142,476.566a11.646,11.646,0,0,1-7.161-5.928c-1.079-2.178-1.078-2.162-1.08-12.169-.128-8.656-.079-8.936.5-9.77a3.733,3.733,0,0,1,5.7-.921c1.244,1.1,1.343,1.467,1.343,5.05v3.108h5.227a59.783,59.783,0,0,1,6.011.168,3.534,3.534,0,0,1,1.87,5.889,4.754,4.754,0,0,1-1.022.769c-.594.321-.815.334-6.351.38l-5.735.047v1.386c0,2.015.209,2.675,1.144,3.61,1.093,1.092,1.384,1.144,6.506,1.148,3.973,0,4.331.026,4.974.317a3.74,3.74,0,0,1,1.248,6.04c-1.051,1.166-1.121,1.178-6.945,1.171-4.545-.005-5.284-.04-6.228-.295Zm23.275.066a11.2,11.2,0,0,1-6.307-4.643c-1.377-2.091-1.645-3.563-1.652-9.059-.006-4.74.089-5.337,1-6.276a3.014,3.014,0,0,1,2.624-1.1,2.647,2.647,0,0,1,1.843.462,3.987,3.987,0,0,1,1.22,1.219c.577,1,.472,1.421.543,5.538.076,4.686.085,4.8.438,5.366a3.343,3.343,0,0,0,5.3.608c.946-.921,1.035-1.463,1.035-6.3,0-3.98.018-4.248.325-4.86a3.473,3.473,0,0,1,2.828-2.057,3.748,3.748,0,0,1,3.664,2c.325.608.345.858.418,5.345-.026,3.733.149,4.826.5,5.348a3.362,3.362,0,0,0,4.974.769c1.06-.93,1.059-.928,1.147-6.129.075-4.465.1-4.727.418-5.333a3.581,3.581,0,0,1,6.273-.293c.964,1.336.542,4.165.542,5.989.07,2.4-.071,5.478-.491,6.427a10.986,10.986,0,0,1-6.744,6.788,14.078,14.078,0,0,1-5.824.209,10.763,10.763,0,0,1-3.572-1.639l-.919-.644-.918.644a10.55,10.55,0,0,1-3.463,1.626,15.268,15.268,0,0,1-5.2,0Zm31.974.023a4.771,4.771,0,0,1-1.96-1.845c-.335-.625-.337-.695-.337-8.559,0-7.568.014-7.956.3-8.538a3.825,3.825,0,0,1,6.171-1.085c1.168,1.167,1.164,1.138,1.114,9.871-.043,7.537-.05,7.691-.377,8.3a4.342,4.342,0,0,1-1.933,1.84,5.273,5.273,0,0,1-2.98.021Zm16.156-.087a11.515,11.515,0,0,1-7.66-6.951c-.679-1.808-.733-2.729-.681-11.68.048-8.257.054-8.4.381-9.006a3.839,3.839,0,0,1,7.062.605,15.092,15.092,0,0,1,.226,3.565v2.806l3.656.055c3.38.052,3.7.081,4.272.385a3.562,3.562,0,0,1,.022,6.405c-.6.32-.868.344-4.307.392l-3.669.051.051,1.8c.06,2.1.3,2.725,1.339,3.523.911.7,1.484.812,4.1.815,2.1,0,2.38.035,3.088.365a3.784,3.784,0,0,1-.005,6.89c-.915.416-6.271.4-7.876-.017Zm19.6.007a11.682,11.682,0,0,1-8.064-8.251c-.247-.967-.274-1.943-.275-9.849.058-8.206-.349-7.885.42-9.574a3.879,3.879,0,0,1,4.645-1.881,4.765,4.765,0,0,1,2.386,2.386,25.45,25.45,0,0,1,.168,3.565v2.964h3.135c3.591,0,4.544.133,5.409.755a3.607,3.607,0,0,1,.081,5.691c-.916.663-1.782.79-5.4.79h-3.225v1.394c0,1.837.211,2.609.937,3.434.991,1.126,1.359,1.233,4.541,1.326,2.77.081,2.788.083,3.541.548a4.358,4.358,0,0,1,1.815,2.678,4.018,4.018,0,0,1-1.776,3.818l-.644.426-3.322.033c-2.836.029-3.476-.009-4.373-.254Zm19.217.069a11.089,11.089,0,0,1-5.533-3.332,10.092,10.092,0,0,1-2.855-7.419,10.451,10.451,0,0,1,1.052-4.8,8.616,8.616,0,0,1,2.874-3.549c3.643-2.6,10.117-2.761,14.2-.356a10.485,10.485,0,0,1,3.718,3.991c1.5,3.033,1.345,5.781-.366,6.674-.592.309-.868.323-7.12.365l-6.5.043v.4c0,.629,1,1.483,2.106,1.792.752.211,1.66.258,5.063.258a43.805,43.805,0,0,1,4.7.156,3.081,3.081,0,0,1,.85,5.613c-.755.511-1.211.382-6.039.379a38.851,38.851,0,0,1-6.144-.218Zm6.768-13.666c-.29-.971-1.121-1.546-2.64-1.827-1.616-.3-3.876.37-4.312,1.276-.192.4-.375.853-.375.853s1.345.045,3.73.045h3.7Zm11.618,13.6a4.247,4.247,0,0,1-1.839-2.18,36.864,36.864,0,0,1-.117-5.282c.057-4.567.064-4.654.479-5.9a10.952,10.952,0,0,1,7.416-6.906,38.546,38.546,0,0,1,8.278-.228,3.575,3.575,0,0,1,.978,6.669c-.585.309-.921.342-4.253.417-3.455.077-3.644.1-4.2.442a3.363,3.363,0,0,0-1.482,1.948,36.239,36.239,0,0,0-.169,4.627c0,4.01,0,4.011-.4,4.814a3.349,3.349,0,0,1-1.116,1.3,2.645,2.645,0,0,1-1.871.537,2.919,2.919,0,0,1-1.7-.258ZM385.2,453.228a3.757,3.757,0,0,1-.859-6.217,3.323,3.323,0,0,1,2.522-.928,3.638,3.638,0,0,1,3.409,2.05,3.8,3.8,0,0,1-5.073,5.095Z" transform="translate(-321.843 -446.083)" fill="#5a2b6b"/>
      </g>
    </g>
  </g>
</svg>
