<svg xmlns="http://www.w3.org/2000/svg" width="128.52" height="55.024"><g data-name="Group 198" fill="#5a2b6b"><g data-name="Group 197"><path data-name="Path 6724" d="M118.92 12.485a17.671 17.671 0 0 1 7.954 1.7c.417.209.564.4.352.869a14.721 14.721 0 0 0-.635 1.77c-.093.3-.2.3-.463.181a17.3 17.3 0 0 0-8.58-1.58 8.578 8.578 0 0 0-3.215.771 4.243 4.243 0 0 0-2.135 5.251 3.637 3.637 0 0 0 1.852 1.97 14.841 14.841 0 0 0 3.422 1.093 51.268 51.268 0 0 1 6.207 1.663c1.892.757 3.589 1.833 4.247 3.868 1.006 3.114.841 6.151-1.311 8.8a7.809 7.809 0 0 1-5.037 2.674 21.235 21.235 0 0 1-12.452-1.7c-.5-.23-.628-.475-.383-.99a13.537 13.537 0 0 0 .624-1.715c.1-.307.211-.352.508-.211a20.936 20.936 0 0 0 8.69 1.994 10.486 10.486 0 0 0 2.538-.218c2.514-.572 3.818-2.2 3.968-4.911a4.178 4.178 0 0 0-3.08-4.724c-2.14-.776-4.389-1.177-6.587-1.75a12.9 12.9 0 0 1-4.088-1.655 5.977 5.977 0 0 1-2.75-5.043c-.116-4.115 2.11-6.792 6.388-7.716a18.416 18.416 0 0 1 3.966-.391Z"/><path data-name="Path 6725" d="M67.748 27.15c0-4.53.007-9.06-.01-13.589 0-.436.11-.552.548-.548 3.147.03 6.295.011 9.442.051a11.249 11.249 0 0 1 5.13 1.241 6.212 6.212 0 0 1 3.362 4.434 10.814 10.814 0 0 1-.285 5.479c-.879 2.821-2.992 4.229-5.758 4.851a24.293 24.293 0 0 1-6.63.389c-.647-.033-1.3-.066-1.936-.155-.425-.059-.521.055-.519.478.018 3.642 0 7.285.023 10.927 0 .514-.087.714-.648.671a16.748 16.748 0 0 0-2.22 0c-.438.025-.508-.127-.507-.526.013-4.566.008-9.137.008-13.703Zm3.354-5.834c0 1.607.011 3.215-.009 4.822 0 .361.087.472.457.469 1.683-.014 3.367.009 5.051 0a11.718 11.718 0 0 0 2.581-.328 4.365 4.365 0 0 0 3.652-3.488 8.446 8.446 0 0 0 .076-3.086 3.735 3.735 0 0 0-2.152-2.9 7.466 7.466 0 0 0-3.324-.749c-1.961-.017-3.922 0-5.883-.022-.361 0-.463.09-.458.456.021 1.61.009 3.218.009 4.825Z"/><path data-name="Path 6726" d="M90.264 27.338c0-4.454.007-8.908-.01-13.362 0-.479.08-.654.62-.651q7.19.036 14.38 0c.546 0 .644.165.585.653a10.833 10.833 0 0 0-.076 1.715c.018.477-.167.566-.607.564-3.664-.017-7.329 0-10.993-.023-.516 0-.629.141-.625.637q.037 4.324 0 8.649c0 .48.14.564.585.561 3.5-.019 7 0 10.493-.022.444 0 .569.119.543.55a14.827 14.827 0 0 0 0 1.773c.023.4-.126.48-.5.479-3.516-.013-7.033 0-10.549-.019-.467 0-.574.125-.571.579.019 3.789 0 7.577.025 11.366 0 .515-.15.615-.616.589a15.341 15.341 0 0 0-2.108 0c-.534.044-.588-.172-.586-.623.016-4.47.01-8.947.01-13.415Z"/><path data-name="Path 6727" d="M58.206 27.366c0-4.489.007-8.979-.011-13.468 0-.462.117-.6.58-.571.775.041 1.554.022 2.331.006.29-.006.414.086.377.377a1.732 1.732 0 0 0 0 .222q0 13.413.013 26.825c0 .528-.158.644-.644.617a19.4 19.4 0 0 0-2.108 0c-.431.022-.549-.1-.548-.539.017-4.49.01-8.979.01-13.469Z"/></g><path data-name="Path 6728" d="M23.825 0 0 13.759v27.512l23.825 13.756 23.823-13.759V13.759Zm-2.46 3.313a4.127 4.127 0 0 0 4.9 0l17.273 9.973a4.12 4.12 0 0 0 0 .924l-17.275 9.973a4.127 4.127 0 0 0-4.9 0L4.085 14.21a4.128 4.128 0 0 0 0-.922Zm23.837 13.653a4.216 4.216 0 0 0 .8.461v19.946a4.127 4.127 0 0 0-2.451 4.246l-17.275 9.973a4.121 4.121 0 0 0-.8-.459l-.021-19.838a4.127 4.127 0 0 0 2.453-4.244Zm-42.754.11 17.275 9.973a4.127 4.127 0 0 0 2.451 4.246v19.946a4.142 4.142 0 0 0-.8.463L4.099 41.731a4.127 4.127 0 0 0-2.451-4.246V17.539a4.231 4.231 0 0 0 .8-.463Z"/></g></svg>