<svg xmlns="http://www.w3.org/2000/svg" xmlns:xlink="http://www.w3.org/1999/xlink" width="1924" height="1352.299" viewBox="0 0 1924 1352.299">
  <defs>
    <radialGradient id="radial-gradient" cx="0.97" cy="0.543" r="1.364" gradientTransform="translate(41.963 -43.464) rotate(180) scale(0.878 0.656)" gradientUnits="objectBoundingBox">
      <stop offset="0" stop-color="#5800ba"/>
      <stop offset="0.046" stop-color="#5700a4"/>
      <stop offset="0.151" stop-color="#380078"/>
      <stop offset="0.262" stop-color="#2c0053"/>
      <stop offset="0.376" stop-color="#200035"/>
      <stop offset="0.495" stop-color="#0c001d"/>
      <stop offset="0.622" stop-color="#07000d"/>
      <stop offset="0.762" stop-color="#020003"/>
      <stop offset="0.94"/>
      <stop offset="1"/>
    </radialGradient>
  </defs>
  <g id="Group_164" data-name="Group 164" transform="translate(0 -6218.515)">
    <path id="Union_5" data-name="Union 5" d="M0,1336.764V0S829.6,357.891,1921.6,0V1336.764C829.6,978.872,0,1336.764,0,1336.764Z" transform="translate(0 6232)" fill="#311b38" opacity="0.28"/>
    <path id="Path_6666" data-name="Path 6666" d="M952.32,1104.263c386.458,0,608.48,62.4,971.68,163.2l-4-1351.5c-84.658,19.624-152.947,68.362-244.242,92.121-207.536,54.01-455.623,82.424-723.438,82.424C574.157,90.509,276.97,22.631,0-64.642V1268.263C345.6,1157.863,574.157,1104.263,952.32,1104.263Z" transform="translate(0 6302.551)" opacity="0.28" fill="url(#radial-gradient)" style="mix-blend-mode: exclusion;isolation: isolate"/>
  </g>
</svg>
