<svg xmlns="http://www.w3.org/2000/svg" width="72.332" height="72.332"><path d="M36.166 6.519c9.656 0 10.8.036 14.617.211 9.8.446 14.379 5.1 14.825 14.825.175 3.813.208 4.958.208 14.614s-.036 10.8-.208 14.614c-.449 9.72-5.015 14.379-14.825 14.825-3.816.175-4.955.211-14.617.211s-10.8-.036-14.614-.211c-9.825-.449-14.379-5.12-14.825-14.828-.175-3.813-.211-4.955-.211-14.614s.039-10.8.211-14.614c.449-9.726 5.015-14.379 14.825-14.825 3.816-.172 4.958-.208 14.614-.208Zm0-6.519c-9.822 0-11.052.042-14.909.217C8.122.82.823 8.107.22 21.254.042 25.114 0 26.344 0 36.166s.042 11.055.217 14.912c.6 13.134 7.89 20.434 21.037 21.037 3.861.175 5.09.217 14.912.217s11.055-.042 14.912-.217c13.122-.6 20.44-7.89 21.034-21.037.178-3.858.22-5.09.22-14.912s-.042-11.052-.217-14.909C71.524 8.134 64.228.823 51.081.22 47.221.042 45.988 0 36.166 0Zm0 17.595a18.573 18.573 0 1 0 18.571 18.571 18.572 18.572 0 0 0-18.571-18.571Zm0 30.627a12.055 12.055 0 1 1 12.055-12.056 12.054 12.054 0 0 1-12.055 12.055Zm19.307-35.7a4.34 4.34 0 1 0 4.337 4.34 4.342 4.342 0 0 0-4.337-4.34Z" fill="#a585b0"/></svg>