<svg xmlns="http://www.w3.org/2000/svg" width="72.332" height="72.332" viewBox="0 0 72.332 72.332">
  <path id="Instagram" d="M36.166,6.519c9.656,0,10.8.036,14.617.211,9.8.446,14.379,5.1,14.825,14.825.175,3.813.208,4.958.208,14.614s-.036,10.8-.208,14.614c-.449,9.72-5.015,14.379-14.825,14.825-3.816.175-4.955.211-14.617.211s-10.8-.036-14.614-.211C11.727,65.159,7.173,60.488,6.727,50.78c-.175-3.813-.211-4.955-.211-14.614s.039-10.8.211-14.614c.449-9.726,5.015-14.379,14.825-14.825,3.816-.172,4.958-.208,14.614-.208Zm0-6.519C26.344,0,25.114.042,21.257.217,8.122.82.823,8.107.22,21.254.042,25.114,0,26.344,0,36.166S.042,47.221.217,51.078c.6,13.134,7.89,20.434,21.037,21.037,3.861.175,5.09.217,14.912.217s11.055-.042,14.912-.217c13.122-.6,20.44-7.89,21.034-21.037.178-3.858.22-5.09.22-14.912s-.042-11.052-.217-14.909C71.524,8.134,64.228.823,51.081.22,47.221.042,45.988,0,36.166,0Zm0,17.595A18.573,18.573,0,1,0,54.737,36.166,18.572,18.572,0,0,0,36.166,17.595Zm0,30.627A12.055,12.055,0,1,1,48.221,36.166,12.054,12.054,0,0,1,36.166,48.221Zm19.307-35.7a4.34,4.34,0,1,0,4.337,4.34A4.342,4.342,0,0,0,55.473,12.522Z" fill="#a585b0"/>
</svg>
