<svg xmlns="http://www.w3.org/2000/svg" width="86.801" height="72.332" viewBox="0 0 86.801 72.332">
  <path id="telegram-1" d="M66.489,74.533a4.3,4.3,0,0,0,4,.524,4.2,4.2,0,0,0,2.618-3.038C76.254,57.25,83.878,19.865,86.738,6.429a2.824,2.824,0,0,0-.94-2.741,2.9,2.9,0,0,0-2.882-.506C67.751,8.794,21.05,26.317,1.961,33.38a2.974,2.974,0,0,0,.184,5.653c8.561,2.561,19.8,6.123,19.8,6.123s5.251,15.859,7.989,23.924a3.169,3.169,0,0,0,2.181,2.083,3.133,3.133,0,0,0,2.933-.749l11.2-10.571s12.919,9.472,20.246,14.691ZM26.67,43.152l6.072,20.029L34.091,50.5S57.552,29.337,70.926,17.275a1,1,0,0,0,.119-1.363,1.028,1.028,0,0,0-1.36-.231L26.67,43.152Z" transform="translate(0 -3)" fill="#a585b0" fill-rule="evenodd"/>
</svg>
