<svg xmlns="http://www.w3.org/2000/svg" width="89.005" height="72.332" viewBox="0 0 89.005 72.332">
  <path id="Path_6732" data-name="Path 6732" d="M790.744,456.029a36.433,36.433,0,0,1-10.487,2.874,18.287,18.287,0,0,0,8.029-10.1,36.564,36.564,0,0,1-11.6,4.432,18.272,18.272,0,0,0-31.118,16.651,51.839,51.839,0,0,1-37.635-19.076,18.286,18.286,0,0,0,5.648,24.381,18.2,18.2,0,0,1-8.266-2.285,18.272,18.272,0,0,0,14.645,18.134,18.291,18.291,0,0,1-8.248.311,18.273,18.273,0,0,0,17.059,12.679,36.712,36.712,0,0,1-27.035,7.566,51.7,51.7,0,0,0,27.992,8.2c33.9,0,53.059-28.633,51.9-54.316A37.176,37.176,0,0,0,790.744,456.029Z" transform="translate(-701.739 -447.465)" fill="#a585b0"/>
</svg>
