<svg xmlns="http://www.w3.org/2000/svg" width="89.005" height="72.332"><path data-name="Path 6732" d="M89.005 8.564a36.433 36.433 0 0 1-10.487 2.874 18.287 18.287 0 0 0 8.029-10.1 36.564 36.564 0 0 1-11.6 4.432 18.272 18.272 0 0 0-31.118 16.651A51.839 51.839 0 0 1 6.194 3.345a18.286 18.286 0 0 0 5.648 24.381 18.2 18.2 0 0 1-8.266-2.285 18.272 18.272 0 0 0 14.645 18.134 18.291 18.291 0 0 1-8.248.311 18.273 18.273 0 0 0 17.059 12.679A36.712 36.712 0 0 1-.003 64.131a51.7 51.7 0 0 0 27.992 8.2c33.9 0 53.059-28.633 51.9-54.316a37.176 37.176 0 0 0 9.116-9.451Z" fill="#a585b0"/></svg>