<svg xmlns="http://www.w3.org/2000/svg" width="82.668" height="99.201" viewBox="0 0 82.668 99.201">
  <path id="Youtube" d="M12.962,0h5.952L23,15.3,26.784,0h6.01L25.912,22.755V38.284H20V22.755ZM40.218,9.809c-4.625,0-7.692,3.059-7.692,7.585V31.236c0,4.977,2.6,7.568,7.692,7.568a7.191,7.191,0,0,0,7.548-7.568V17.393a7.374,7.374,0,0,0-7.548-7.585ZM42.412,31c0,1.538-.785,2.67-2.2,2.67A2.381,2.381,0,0,1,37.924,31V17.861c0-1.546.711-2.691,2.187-2.691,1.612,0,2.3,1.112,2.3,2.691V31ZM61.959,10.044V31.48c-.641.8-2.067,2.116-3.088,2.116-1.12,0-1.4-.769-1.4-1.9V10.044H52.225v23.6c0,2.79.851,5.043,3.666,5.043,1.587,0,3.794-.827,6.068-3.526V38.28h5.249V10.044Zm9.106,57.281c-1.852,0-2.236,1.3-2.236,3.154V73.2h4.419V70.475c0-1.819-.38-3.15-2.182-3.15Zm-19.439.165a3.832,3.832,0,0,0-1.033.818V85.07a4.385,4.385,0,0,0,1.186.947,2.127,2.127,0,0,0,2.559-.277,3.1,3.1,0,0,0,.434-1.856V70a3.388,3.388,0,0,0-.533-2.067A2.083,2.083,0,0,0,51.626,67.491ZM71.578,46.017c-10.763-.732-45.74-.732-56.487,0-11.631.794-13,7.82-13.091,26.318C2.087,90.8,3.447,97.859,15.091,98.652c10.747.732,45.724.732,56.487,0,11.631-.794,13-7.825,13.091-26.318C84.582,53.871,83.222,46.811,71.578,46.017Zm-50.94,44.17H15V59.021H9.176V53.73H26.462v5.291H20.633V90.187Zm20.031,0h-5V87.219a10.933,10.933,0,0,1-2.877,2.5c-2.695,1.546-6.394,1.509-6.394-3.947V63.3h5V83.913c0,1.083.26,1.81,1.331,1.81.975,0,2.331-1.252,2.939-2.013V63.3h5V90.187Zm19.249-5.572c0,3.327-1.244,5.915-4.572,5.915A5.715,5.715,0,0,1,50.6,88.12v2.067H45.55V53.73H50.6V65.469a6,6,0,0,1,4.448-2.513c3.662,0,4.877,3.1,4.877,6.742V84.615ZM78.4,77.374H68.833v5.076c0,2.017.174,3.761,2.182,3.761,2.112,0,2.236-1.422,2.236-3.761V80.581H78.4V82.6c0,5.179-2.224,8.321-7.494,8.321-4.774,0-7.217-3.48-7.217-8.321V70.529c0-4.667,3.084-7.911,7.593-7.911,4.8,0,7.114,3.05,7.114,7.911v6.845Z" transform="translate(-2)" fill="#a585b0"/>
</svg>
